<svg xmlns="http://www.w3.org/2000/svg" width="88" height="113" fill="none" viewBox="0 0 88 113">
  <path fill="#fff" fill-rule="evenodd" d="M68.043 10.297c-.267 0-.539-.058-.795-.18-7.717-3.667-16-5.527-24.617-5.527-4.491 0-8.964.52-13.294 1.546-.984.232-1.974-.363-2.21-1.332a1.803 1.803 0 0 1 1.352-2.176A61.47 61.47 0 0 1 42.631.982c9.174 0 17.993 1.98 26.21 5.886a1.792 1.792 0 0 1 .854 2.41 1.836 1.836 0 0 1-1.652 1.02ZM42.631 8.68c4.098 0 8.182.468 12.138 1.39a1.803 1.803 0 0 1 1.361 2.171c-.233.97-1.22 1.57-2.205 1.34a49.84 49.84 0 0 0-11.294-1.293c-13.44 0-25.985 5.271-35.324 14.841a1.84 1.84 0 0 1-1.322.555c-.457 0-.914-.167-1.27-.503a1.784 1.784 0 0 1-.052-2.551 52.605 52.605 0 0 1 16.99-11.658C28.289 10.123 35.347 8.68 42.63 8.68Zm0 11.305c10.654 0 20.767 4.008 28.477 11.284 7.686 7.254 12.181 16.987 12.657 27.406.044.968.855 1.723 1.83 1.723.027 0 .055 0 .083-.002 1.011-.044 1.794-.888 1.749-1.883-.519-11.349-5.413-21.95-13.782-29.849-8.395-7.923-19.41-12.287-31.014-12.287a46.06 46.06 0 0 0-6.437.453c-1.002.143-1.697 1.057-1.552 2.044.145.986 1.073 1.671 2.076 1.527a42.213 42.213 0 0 1 5.913-.416ZM28.146 18.74c.958-.322 2 .18 2.328 1.123a1.797 1.797 0 0 1-1.14 2.29 41.282 41.282 0 0 0-11.279 5.863 1.847 1.847 0 0 1-1.094.358 1.84 1.84 0 0 1-1.47-.725 1.786 1.786 0 0 1 .372-2.525 44.967 44.967 0 0 1 12.284-6.384Zm14.485 5.335c.686 0 1.38.019 2.062.056 1.01.055 1.785.906 1.73 1.9a1.819 1.819 0 0 1-1.932 1.702 34.472 34.472 0 0 0-1.86-.05c-18.392 0-33.356 14.73-33.356 32.835v7.906c0 .996-.82 1.804-1.833 1.804-1.012 0-1.832-.808-1.832-1.804v-7.906c0-20.095 16.608-36.443 37.021-36.443Zm27.37 38.247c1.011 0 1.832-.808 1.832-1.804 0-6.95-2.563-13.661-7.215-18.9a29.344 29.344 0 0 0-17.816-9.553c-1.001-.141-1.931.543-2.075 1.529-.144.986.552 1.9 1.553 2.042a25.66 25.66 0 0 1 15.578 8.357c4.069 4.581 6.31 10.45 6.31 16.525 0 .996.82 1.804 1.832 1.804Zm-48.752-1.804c0-11.606 9.592-21.048 21.382-21.048 11.79 0 21.382 9.442 21.382 21.048v7.138c0 4.791 1.794 9.392 5.05 12.954l5.16 5.642a1.787 1.787 0 0 1-.137 2.549 1.854 1.854 0 0 1-2.588-.135l-5.16-5.642c-3.863-4.226-5.99-9.683-5.99-15.368v-7.138c0-9.616-7.948-17.44-17.717-17.44-9.77 0-17.717 7.824-17.717 17.44v7.906c0 14.422 5.428 28.243 15.284 38.915l1.835 1.987c.68.737.625 1.878-.124 2.548a1.844 1.844 0 0 1-1.232.469c-.498 0-.995-.199-1.357-.59l-1.834-1.987C27.016 98.428 21.25 83.746 21.25 68.424v-7.906Zm21.382-13.35c-7.479 0-13.563 5.99-13.563 13.35v7.906c0 13.404 5.044 26.247 14.204 36.165l6.628 7.178c.362.391.858.59 1.357.59.44 0 .881-.154 1.232-.469.75-.67.804-1.811.123-2.548l-6.628-7.178c-8.545-9.253-13.25-21.234-13.25-33.738V60.52c0-5.372 4.44-9.743 9.896-9.743 5.458 0 9.897 4.37 9.897 9.743v7.137c0 7.59 2.84 14.876 7.998 20.518l5.73 6.267c.678.74 1.836.8 2.589.134a1.785 1.785 0 0 0 .136-2.548l-5.73-6.267c-4.55-4.978-7.057-11.407-7.057-18.104V60.52c0-7.362-6.084-13.35-13.562-13.35Zm-5.743 13.35v7.906c0 11.484 4.322 22.49 12.17 30.987l7.856 8.507a1.84 1.84 0 0 0 1.357.591c.44 0 .881-.155 1.232-.469a1.785 1.785 0 0 0 .124-2.549l-7.857-8.507c-7.233-7.832-11.216-17.975-11.216-28.56V60.52c0-1.128.931-2.045 2.077-2.045 1.145 0 2.077.917 2.077 2.045v7.137c0 9.495 3.553 18.61 10.006 25.667l8.059 8.815a1.853 1.853 0 0 0 2.588.135 1.785 1.785 0 0 0 .137-2.549l-8.06-8.815c-5.845-6.393-9.065-14.651-9.065-23.253V60.52c0-3.117-2.576-5.653-5.742-5.653-3.167 0-5.743 2.536-5.743 5.653Zm31.279 7.138c0-.997.82-1.804 1.833-1.804 1.012 0 1.832.807 1.832 1.804a11.54 11.54 0 0 0 3.043 7.804l4.589 5.02c.677.74.616 1.88-.137 2.548-.35.31-.788.463-1.225.463a1.842 1.842 0 0 1-1.363-.598l-4.59-5.019a15.118 15.118 0 0 1-3.982-10.218ZM19.263 85.05c-.256-.964-1.257-1.54-2.237-1.289a1.802 1.802 0 0 0-1.309 2.202 68.415 68.415 0 0 0 2.64 7.935c.286.708.976 1.14 1.705 1.14.225 0 .453-.041.675-.127a1.795 1.795 0 0 0 1.029-2.342 64.806 64.806 0 0 1-2.503-7.52Zm3.863-45.91a1.853 1.853 0 0 1 2.589.136c.676.74.615 1.882-.138 2.548-5.39 4.77-8.483 11.584-8.483 18.694v7.905c0 3 .21 6.024.625 8.987.138.987-.563 1.898-1.565 2.033a1.824 1.824 0 0 1-2.066-1.541 68.631 68.631 0 0 1-.66-9.479v-7.905c0-8.132 3.535-15.924 9.698-21.377Zm7.781-1.16c.265 0 .533-.056.787-.176a25.61 25.61 0 0 1 7.287-2.168c1.002-.142 1.698-1.056 1.554-2.042-.144-.986-1.072-1.67-2.075-1.53a29.303 29.303 0 0 0-8.342 2.482 1.792 1.792 0 0 0-.867 2.405 1.836 1.836 0 0 0 1.656 1.029Zm30.718-4.44c.319.219.684.324 1.045.324.58 0 1.15-.27 1.506-.775a1.786 1.786 0 0 0-.459-2.511 37.085 37.085 0 0 0-11.051-5.143c-.974-.27-1.987.288-2.262 1.247a1.8 1.8 0 0 0 1.267 2.226 33.401 33.401 0 0 1 9.954 4.633Zm14.362 34.116v-7.138c0-8.393-3.23-16.386-9.092-22.507a1.784 1.784 0 0 1 .076-2.55 1.853 1.853 0 0 1 2.59.075c6.508 6.793 10.091 15.666 10.091 24.982v7.138c0 .982.368 1.925 1.035 2.654l2.26 2.472c.677.74.616 1.881-.137 2.548-.35.31-.788.463-1.225.463a1.84 1.84 0 0 1-1.363-.597l-2.26-2.472a7.5 7.5 0 0 1-1.975-5.068ZM9.612 30.68c-4.29 4.598-7.485 9.91-9.495 15.79a1.798 1.798 0 0 0 1.152 2.286c.194.064.391.094.585.094a1.83 1.83 0 0 0 1.737-1.229c1.845-5.398 4.78-10.277 8.72-14.5a1.785 1.785 0 0 0-.11-2.549 1.853 1.853 0 0 0-2.589.108Zm73.059.851c.395 0 .793-.125 1.128-.383a1.785 1.785 0 0 0 .313-2.533 52.905 52.905 0 0 0-21.367-16.006 1.843 1.843 0 0 0-2.396.975c-.387.92.056 1.976.991 2.358A49.237 49.237 0 0 1 81.226 30.84c.362.454.9.691 1.445.691Zm-66.553-20.47a57.204 57.204 0 0 1 5.558-2.53 1.795 1.795 0 0 0 1.025-2.344 1.843 1.843 0 0 0-2.38-1.008 60.926 60.926 0 0 0-5.92 2.694 1.79 1.79 0 0 0-.76 2.44c.329.61.964.959 1.62.959.29 0 .584-.068.857-.21Z" clip-rule="evenodd"/>
</svg>
